<svg width="18" height="18" viewBox="0 0 18 18" fill="none" xmlns="http://www.w3.org/2000/svg">
<path fill-rule="evenodd" clip-rule="evenodd" d="M17.4354 16.3951L13.146 11.9395C14.2489 10.6301 14.8532 8.98262 14.8532 7.26749C14.8532 3.26026 11.5888 0 7.57659 0C3.56433 0 0.299988 3.26026 0.299988 7.26749C0.299988 11.2747 3.56433 14.535 7.57659 14.535C9.08284 14.535 10.5182 14.0812 11.7454 13.2199L16.0674 17.7093C16.2481 17.8967 16.4911 18 16.7514 18C16.9979 18 17.2317 17.9062 17.4092 17.7355C17.7863 17.3731 17.7983 16.7721 17.4354 16.3951ZM7.57659 1.89587C10.5423 1.89587 12.9549 4.30552 12.9549 7.26749C12.9549 10.2295 10.5423 12.6391 7.57659 12.6391C4.6109 12.6391 2.19823 10.2295 2.19823 7.26749C2.19823 4.30552 4.6109 1.89587 7.57659 1.89587Z" fill="#BCBFC2"/>
</svg>
