<svg width="19" height="15" viewBox="0 0 19 15" fill="none" xmlns="http://www.w3.org/2000/svg">
<path fill-rule="evenodd" clip-rule="evenodd" d="M3 3V1C3 0.447715 3.44772 0 4 0H18C18.5523 0 19 0.447715 19 1V11C19 11.5523 18.5523 12 18 12H16V14C16 14.5523 15.5523 15 15 15H1C0.447715 15 0 14.5523 0 14V4C0 3.44772 0.447715 3 1 3H3ZM15 12H4C3.44772 12 3 11.5523 3 11V4H1V14H15V12ZM4 1V11H18V1H4ZM18 11H4V10L7 7L10 9L14 5L18 10V11ZM9.5 6C8.67157 6 8 5.32843 8 4.5C8 3.67157 8.67157 3 9.5 3C10.3284 3 11 3.67157 11 4.5C11 5.32843 10.3284 6 9.5 6Z" fill="white"/>
</svg>
