<svg xmlns="http://www.w3.org/2000/svg">
  <symbol viewBox="0 0 14 18" id="flag-icon">
    <path d="M2 0h10a2 2 0 0 1 2 2v16l-6.905-5L0 18V2a2 2 0 0 1 2-2z" />
  </symbol>
  <symbol viewBox="0 0 15 14" id="message-icon">
    <path d="M11.1346 11V14L8.36064 11H2.25C1.42157 11 0.75 10.3284 0.75 9.5V2C0.75 1.17157 1.42157 0.5 2.25 0.5H12.75C13.5784 0.5 14.25 1.17157 14.25 2V9.5C14.25 10.3284 13.5784 11 12.75 11H11.1346z" />
  </symbol>
  <symbol viewBox="0 0 13 13" id="like-icon">
    <path d="M11.8391 1.96033C11.1701 1.2119 10.2807 0.800049 9.33459 0.800049C8.38831 0.800049 7.59423 1.2119 6.925 1.96033L6.49998 2.63921L6.075 1.96033C5.40597 1.2119 4.61164 0.800049 3.66557 0.800049C2.71953 0.800049 1.82982 1.2119 1.16086 1.96033C-0.220288 3.50554 -0.220288 6.01968 1.16086 7.56429L6.10991 12.3207C6.19083 12.4116 6.29157 12.4672 6.39682 12.4886C6.43211 12.4964 6.46761 12.5 6.50317 12.5C6.64318 12.5 6.78341 12.4403 6.89004 12.3207L11.8391 7.56429C13.2203 6.01968 13.2203 3.50554 11.8391 1.96033z" />
  </symbol>
</svg>

