<svg xmlns="http://www.w3.org/2000/svg">
  <symbol viewBox="0 0 14 18" id="flag-icon">
    <path d="M2 0h10a2 2 0 0 1 2 2v16l-6.905-5L0 18V2a2 2 0 0 1 2-2z" />
  </symbol>
  <symbol viewBox="0 0 15 14" id="message-icon">
    <path d="M11.1346 11V14L8.36064 11H2.25C1.42157 11 0.75 10.3284 0.75 9.5V2C0.75 1.17157 1.42157 0.5 2.25 0.5H12.75C13.5784 0.5 14.25 1.17157 14.25 2V9.5C14.25 10.3284 13.5784 11 12.75 11H11.1346z" />
  </symbol>
  <symbol viewBox="0 0 13 13" id="like-icon">
    <path d="M11.8391 1.96033C11.1701 1.2119 10.2807 0.800049 9.33459 0.800049C8.38831 0.800049 7.59423 1.2119 6.925 1.96033L6.49998 2.63921L6.075 1.96033C5.40597 1.2119 4.61164 0.800049 3.66557 0.800049C2.71953 0.800049 1.82982 1.2119 1.16086 1.96033C-0.220288 3.50554 -0.220288 6.01968 1.16086 7.56429L6.10991 12.3207C6.19083 12.4116 6.29157 12.4672 6.39682 12.4886C6.43211 12.4964 6.46761 12.5 6.50317 12.5C6.64318 12.5 6.78341 12.4403 6.89004 12.3207L11.8391 7.56429C13.2203 6.01968 13.2203 3.50554 11.8391 1.96033z" />
  </symbol>
  <symbol viewBox="0 0 20 20" id="share-icon">
    <path d="M18.7816 9.13237L12.665 4.20204C12.0971 3.74422 11.125 4.1316 11.125 4.69507V6.8785C7.93568 6.98415 5.54369 7.82935 3.75243 9.27323C1 11.4919 1 14 1 15.2C3.75243 11.84 11.125 11.84 11.125 11.84V14.5205C11.125 15.084 12.1408 15.4361 12.665 15.0135L18.7816 10.0832C18.9563 9.94235 19 9.77608 19 9.6C19 9.42392 18.9563 9.27323 18.7816 9.13237z"/>
  </symbol>
  <symbol viewBox="0 0 18 17" id="home-icon">
    <path d="M2 17H7V11H11V17H16V10H18L9 0L0 10H2V17z"/>
  </symbol>
  <symbol viewBox="0 0 15 15" id="clock-icon">
    <path d="M7.5 14.25C3.77208 14.25 0.75 11.2279 0.75 7.5C0.75 3.77208 3.77208 0.75 7.5 0.75C11.2279 0.75 14.25 3.77208 14.25 7.5C14.25 11.2279 11.2279 14.25 7.5 14.25ZM8.25 7.5V4.5C8.25 4.08579 7.91421 3.75 7.5 3.75C7.08579 3.75 6.75 4.08579 6.75 4.5V8.25C6.75 8.66421 7.08579 9 7.5 9H9.75C10.1642 9 10.5 8.66421 10.5 8.25C10.5 7.83579 10.1642 7.5 9.75 7.5H8.25z"/>
  </symbol>
  <symbol viewBox="0 0 40 40" id="fb-icon">
    <path d="M24.6234 11.0037L22.2249 11C19.5302 11 17.7888 12.7387 17.7888 15.4298V17.4723H15.3771C15.1688 17.4723 15 17.6367 15 17.8395V20.7988C15 21.0016 15.1689 21.1658 15.3771 21.1658H17.7888V28.633C17.7888 28.8358 17.9575 29 18.1659 29H21.3124C21.5208 29 21.6896 28.8356 21.6896 28.633V21.1658H24.5093C24.7177 21.1658 24.8865 21.0016 24.8865 20.7988L24.8876 17.8395C24.8876 17.7421 24.8478 17.6489 24.7772 17.5799C24.7066 17.511 24.6103 17.4723 24.5103 17.4723H21.6896V15.7409C21.6896 14.9087 21.8933 14.4862 23.0073 14.4862L24.623 14.4857C24.8312 14.4857 25 14.3212 25 14.1186V11.3708C25 11.1683 24.8314 11.0041 24.6234 11.0037z" />
  </symbol>
  <symbol viewBox="0 0 40 40" id="twitter-icon">
    <path d="M28.979 14.3629C28.9532 14.3322 28.9106 14.3217 28.8743 14.3385C28.3361 14.5795 27.77 14.7527 27.1869 14.8551C27.8059 14.385 28.2672 13.7341 28.5037 12.9876C28.5151 12.9519 28.5033 12.9128 28.4744 12.8896C28.4453 12.8663 28.4049 12.8633 28.373 12.8825C27.6758 13.2999 26.9206 13.5941 26.1276 13.7573C25.4248 13.0211 24.4435 12.6 23.4278 12.6C21.3623 12.6 19.6821 14.2961 19.6821 16.3809C19.6821 16.633 19.7063 16.8828 19.7542 17.1252C16.8934 16.947 14.2184 15.5606 12.3995 13.3086C12.3809 13.2856 12.3527 13.2727 12.3232 13.2757C12.2939 13.2779 12.2677 13.2947 12.2529 13.3202C11.9211 13.8948 11.7458 14.5523 11.7458 15.2211C11.7458 16.3803 12.2675 17.4641 13.1559 18.1793C12.6985 18.1238 12.2518 17.9785 11.849 17.7527C11.8219 17.7373 11.7882 17.7375 11.7611 17.7533C11.734 17.7689 11.7168 17.798 11.7161 17.8296L11.7157 17.878C11.7157 19.5428 12.8025 21.0045 14.3487 21.4899C13.9415 21.5561 13.5189 21.5517 13.1036 21.4716C13.073 21.4659 13.0409 21.4765 13.0199 21.5003C12.999 21.5241 12.992 21.5574 13.0016 21.5876C13.4653 23.0484 14.7535 24.0728 16.2531 24.2005C15.0022 25.1256 13.5237 25.613 11.9615 25.613C11.6737 25.613 11.3839 25.5956 11.1 25.562C11.0594 25.5573 11.0192 25.5817 11.0052 25.621C10.9912 25.6606 11.0061 25.7049 11.0412 25.7274C12.7317 26.8218 14.6864 27.4 16.6943 27.4C23.2619 27.4 27.1865 22.0148 27.1865 16.8087C27.1865 16.6637 27.1837 16.5195 27.178 16.3757C27.8865 15.8525 28.4947 15.2122 28.9851 14.471C29.007 14.4379 29.0046 14.3938 28.979 14.3629z" />
  </symbol>
  <symbol viewBox="0 0 40 40" id="inst-icon">
    <path fill-rule="evenodd" clip-rule="evenodd" d="M20 11.5C22.3085 11.5 22.5979 11.5098 23.5045 11.5512C24.4093 11.5924 25.0272 11.7361 25.5678 11.9463C26.1268 12.1634 26.6008 12.4541 27.0734 12.9266C27.5459 13.3992 27.8366 13.8732 28.0538 14.4322C28.2639 14.9728 28.4076 15.5907 28.4488 16.4955C28.4902 17.4021 28.5 17.6915 28.5 20C28.5 22.3085 28.4902 22.5979 28.4488 23.5045C28.4076 24.4093 28.2639 25.0272 28.0538 25.5678C27.8366 26.1268 27.5459 26.6008 27.0734 27.0734C26.6008 27.5459 26.1268 27.8366 25.5678 28.0538C25.0272 28.2639 24.4093 28.4076 23.5045 28.4488C22.5979 28.4902 22.3085 28.5 20 28.5C17.6915 28.5 17.4021 28.4902 16.4955 28.4488C15.5907 28.4076 14.9728 28.2639 14.4322 28.0538C13.8732 27.8366 13.3992 27.5459 12.9266 27.0734C12.4541 26.6008 12.1634 26.1268 11.9463 25.5678C11.7361 25.0272 11.5924 24.4093 11.5512 23.5045C11.5098 22.5979 11.5 22.3085 11.5 20C11.5 17.6915 11.5098 17.4021 11.5512 16.4955C11.5924 15.5907 11.7361 14.9728 11.9463 14.4322C12.1634 13.8732 12.4541 13.3992 12.9266 12.9266C13.3992 12.4541 13.8732 12.1634 14.4322 11.9463C14.9728 11.7361 15.5907 11.5924 16.4955 11.5512C17.4021 11.5098 17.6915 11.5 20 11.5ZM19.9973 22.8298C21.5616 22.8298 22.8298 21.5616 22.8298 19.9973C22.8298 18.433 21.5616 17.1649 19.9973 17.1649C18.433 17.1649 17.1649 18.433 17.1649 19.9973C17.1649 21.5616 18.433 22.8298 19.9973 22.8298ZM19.9973 15.6338C22.4072 15.6338 24.3608 17.5874 24.3608 19.9973C24.3608 22.4072 22.4072 24.3608 19.9973 24.3608C17.5874 24.3608 15.6338 22.4072 15.6338 19.9973C15.6338 17.5874 17.5874 15.6338 19.9973 15.6338ZM25.8556 15.3722C25.8556 15.946 25.3904 16.4111 24.8166 16.4111C24.2429 16.4111 23.7778 15.946 23.7778 15.3722C23.7778 14.7985 24.2429 14.3333 24.8166 14.3333C25.3904 14.3333 25.8556 14.7985 25.8556 15.3722z" />
  </symbol>
</svg>