<svg xmlns="http://www.w3.org/2000/svg">
  <symbol viewBox="0 0 14 18" id="flag-icon">
    <path d="M2 0h10a2 2 0 0 1 2 2v16l-6.905-5L0 18V2a2 2 0 0 1 2-2z" />
  </symbol>
  <symbol viewBox="0 0 15 14" id="message-icon">
    <path d="M11.1346 11V14L8.36064 11H2.25C1.42157 11 0.75 10.3284 0.75 9.5V2C0.75 1.17157 1.42157 0.5 2.25 0.5H12.75C13.5784 0.5 14.25 1.17157 14.25 2V9.5C14.25 10.3284 13.5784 11 12.75 11H11.1346z" />
  </symbol>
  <symbol viewBox="0 0 13 13" id="like-icon">
    <path d="M11.8391 1.96033C11.1701 1.2119 10.2807 0.800049 9.33459 0.800049C8.38831 0.800049 7.59423 1.2119 6.925 1.96033L6.49998 2.63921L6.075 1.96033C5.40597 1.2119 4.61164 0.800049 3.66557 0.800049C2.71953 0.800049 1.82982 1.2119 1.16086 1.96033C-0.220288 3.50554 -0.220288 6.01968 1.16086 7.56429L6.10991 12.3207C6.19083 12.4116 6.29157 12.4672 6.39682 12.4886C6.43211 12.4964 6.46761 12.5 6.50317 12.5C6.64318 12.5 6.78341 12.4403 6.89004 12.3207L11.8391 7.56429C13.2203 6.01968 13.2203 3.50554 11.8391 1.96033z" />
  </symbol>
  <symbol viewBox="0 0 20 20" id="share-icon">
    <path d="M18.7816 9.13237L12.665 4.20204C12.0971 3.74422 11.125 4.1316 11.125 4.69507V6.8785C7.93568 6.98415 5.54369 7.82935 3.75243 9.27323C1 11.4919 1 14 1 15.2C3.75243 11.84 11.125 11.84 11.125 11.84V14.5205C11.125 15.084 12.1408 15.4361 12.665 15.0135L18.7816 10.0832C18.9563 9.94235 19 9.77608 19 9.6C19 9.42392 18.9563 9.27323 18.7816 9.13237z"/>
  </symbol>
  <symbol viewBox="0 0 18 17" id="home-icon">
    <path d="M2 17H7V11H11V17H16V10H18L9 0L0 10H2V17z"/>
  </symbol>
  <symbol iewBox="0 0 15 15" id="clock-icon">
    <path d="M7.5 14.25C3.77208 14.25 0.75 11.2279 0.75 7.5C0.75 3.77208 3.77208 0.75 7.5 0.75C11.2279 0.75 14.25 3.77208 14.25 7.5C14.25 11.2279 11.2279 14.25 7.5 14.25ZM8.25 7.5V4.5C8.25 4.08579 7.91421 3.75 7.5 3.75C7.08579 3.75 6.75 4.08579 6.75 4.5V8.25C6.75 8.66421 7.08579 9 7.5 9H9.75C10.1642 9 10.5 8.66421 10.5 8.25C10.5 7.83579 10.1642 7.5 9.75 7.5H8.25z"/>
  </symbol>
</svg>

