<svg width="40" height="40" viewBox="0 0 40 40" fill="none" xmlns="http://www.w3.org/2000/svg">
<path fill-rule="evenodd" clip-rule="evenodd" d="M20 40C31.0457 40 40 31.0457 40 20C40 8.9543 31.0457 0 20 0C8.9543 0 0 8.9543 0 20C0 31.0457 8.9543 40 20 40Z" fill="#1DA1F2"/>
<path fill-rule="evenodd" clip-rule="evenodd" d="M28.979 14.3629C28.9532 14.3322 28.9106 14.3217 28.8743 14.3385C28.3361 14.5795 27.77 14.7527 27.1869 14.8551C27.8059 14.385 28.2672 13.7341 28.5037 12.9876C28.5151 12.9519 28.5033 12.9128 28.4744 12.8896C28.4453 12.8663 28.4049 12.8633 28.373 12.8825C27.6758 13.2999 26.9206 13.5941 26.1276 13.7573C25.4248 13.0211 24.4435 12.6 23.4278 12.6C21.3623 12.6 19.6821 14.2961 19.6821 16.3809C19.6821 16.633 19.7063 16.8828 19.7542 17.1252C16.8934 16.947 14.2184 15.5606 12.3995 13.3086C12.3809 13.2856 12.3527 13.2727 12.3232 13.2757C12.2939 13.2779 12.2677 13.2947 12.2529 13.3202C11.9211 13.8948 11.7458 14.5523 11.7458 15.2211C11.7458 16.3803 12.2675 17.4641 13.1559 18.1793C12.6985 18.1238 12.2518 17.9785 11.849 17.7527C11.8219 17.7373 11.7882 17.7375 11.7611 17.7533C11.734 17.7689 11.7168 17.798 11.7161 17.8296L11.7157 17.878C11.7157 19.5428 12.8025 21.0045 14.3487 21.4899C13.9415 21.5561 13.5189 21.5517 13.1036 21.4716C13.073 21.4659 13.0409 21.4765 13.0199 21.5003C12.999 21.5241 12.992 21.5574 13.0016 21.5876C13.4653 23.0484 14.7535 24.0728 16.2531 24.2005C15.0022 25.1256 13.5237 25.613 11.9615 25.613C11.6737 25.613 11.3839 25.5956 11.1 25.562C11.0594 25.5573 11.0192 25.5817 11.0052 25.621C10.9912 25.6606 11.0061 25.7049 11.0412 25.7274C12.7317 26.8218 14.6864 27.4 16.6943 27.4C23.2619 27.4 27.1865 22.0148 27.1865 16.8087C27.1865 16.6637 27.1837 16.5195 27.178 16.3757C27.8865 15.8525 28.4947 15.2122 28.9851 14.471C29.007 14.4379 29.0046 14.3938 28.979 14.3629Z" fill="white"/>
</svg>
