<svg width="40" height="40" viewBox="0 0 40 40" fill="none" xmlns="http://www.w3.org/2000/svg">
<path fill-rule="evenodd" clip-rule="evenodd" d="M20 40C31.0457 40 40 31.0457 40 20C40 8.9543 31.0457 0 20 0C8.9543 0 0 8.9543 0 20C0 31.0457 8.9543 40 20 40Z" fill="#FF0000"/>
<path fill-rule="evenodd" clip-rule="evenodd" d="M20 12.8C17.102 12.8 13.3406 13.5294 13.3406 13.5294L13.3311 13.5402C12.0112 13.7522 11 14.8915 11 16.277V23.7217C11.0027 25.0899 11.9937 26.2523 13.3379 26.4652L13.3406 26.4693C13.3406 26.4693 17.102 27.2 20 27.2C22.898 27.2 26.6594 26.4693 26.6594 26.4693C28.0065 26.2555 28.9986 25.0914 29 23.723V16.277C28.998 14.9096 28.0068 13.7464 26.6621 13.5334C26.6594 13.5294 22.898 12.8 20 12.8ZM18.2 16.85L23.6 20L18.2 23.15V16.85Z" fill="white"/>
</svg>
