<svg width="184" height="31" viewBox="0 0 184 31" fill="none" xmlns="http://www.w3.org/2000/svg">
<path d="M11.8311 2.03922V5.4902L8.77031 6.07843V20.9804C8.77031 22.8627 9.2739 24.2745 10.2811 25.2157C11.3013 26.1438 12.6944 26.6078 14.4602 26.6078C16.2522 26.6078 17.6583 26.1438 18.6786 25.2157C19.6989 24.2876 20.209 22.8758 20.209 20.9804V6.07843L17.1678 5.4902V2.03922H28.9989V5.4902L25.9382 6.07843V20.9804C25.9382 24.183 24.8787 26.6536 22.7597 28.3922C20.6537 30.1307 17.8873 31 14.4602 31C11.0463 31 8.28634 30.1307 6.18042 28.3922C4.08758 26.6536 3.04116 24.183 3.04116 20.9804V6.07843L0 5.4902V2.03922H11.8311Z" fill="#262D33"/>
<path d="M30.5293 27.1569L33.2762 26.5686V13.4118L30.235 12.8235V9.37255H38.6129L38.868 12.4118C39.5743 11.3268 40.4442 10.4837 41.4775 9.88235C42.5108 9.28105 43.6684 8.98039 44.9503 8.98039C47.0955 8.98039 48.7697 9.6536 49.9731 11C51.1765 12.3464 51.7782 14.4575 51.7782 17.3333V26.5686L54.5251 27.1569V30.5882H43.5769V27.1569L46.0294 26.5686V17.3529C46.0294 15.9281 45.7417 14.9216 45.1661 14.3333C44.5906 13.732 43.7208 13.4314 42.5566 13.4314C41.798 13.4314 41.1178 13.5882 40.5161 13.902C39.9144 14.2026 39.4108 14.634 39.0053 15.1961V26.5686L41.3205 27.1569V30.5882H30.5293V27.1569Z" fill="#262D33"/>
<path d="M56.1732 27.1569L58.9396 26.5686V13.4118L55.8789 12.8235V9.37255H64.6688V26.5686L67.4157 27.1569V30.5882H56.1732V27.1569ZM64.6688 4.29412H58.9396V0H64.6688V4.29412Z" fill="#262D33"/>
<path d="M78.305 12.8235L76.3037 13.1961L79.1094 22.6863L79.4822 24.6863H79.5999L80.0119 22.6863L82.7784 13.2157L80.7379 12.8235V9.37255H90.3715V12.8235L88.5272 13.1176L82.2683 30.5882H76.7942L70.5157 13.1176L68.6714 12.8235V9.37255H78.305V12.8235Z" fill="#262D33"/>
<path d="M102.105 31C99.0437 31 96.5977 30.0196 94.7665 28.0588C92.9352 26.098 92.0196 23.6078 92.0196 20.5882V19.8039C92.0196 16.6536 92.8829 14.0588 94.6095 12.0196C96.3492 9.98039 98.6775 8.96732 101.594 8.98039C104.459 8.98039 106.683 9.84314 108.265 11.5686C109.848 13.2941 110.639 15.6275 110.639 18.5686V21.6863H97.9646L97.9254 21.8039C98.03 23.2026 98.4944 24.3529 99.3184 25.2549C100.156 26.1569 101.287 26.6078 102.713 26.6078C103.982 26.6078 105.034 26.4837 105.872 26.2353C106.709 25.9739 107.624 25.5686 108.618 25.0196L110.168 28.549C109.292 29.2418 108.154 29.8235 106.755 30.2941C105.368 30.7647 103.818 31 102.105 31ZM101.594 13.3922C100.535 13.3922 99.6977 13.7974 99.083 14.6078C98.4682 15.4183 98.0889 16.4837 97.945 17.8039L98.0038 17.902H105.028V17.3922C105.028 16.1765 104.74 15.2092 104.165 14.4902C103.602 13.7582 102.745 13.3922 101.594 13.3922Z" fill="#262D33"/>
<path d="M113.798 27.1569L116.545 26.5686V13.4118L113.504 12.8235V9.37255H121.882L122.137 12.4706C122.634 11.3725 123.275 10.5163 124.06 9.90196C124.845 9.28758 125.754 8.98039 126.787 8.98039C127.088 8.98039 127.402 9.00654 127.729 9.05882C128.069 9.09804 128.35 9.15033 128.572 9.21569L127.964 14.4314L125.61 14.3726C124.773 14.3726 124.079 14.5359 123.53 14.8627C122.981 15.1895 122.562 15.6536 122.274 16.2549V26.5686L125.021 27.1569V30.5882H113.798V27.1569Z" fill="#262D33"/>
<path d="M147.604 16.6667H143.759L143.15 14.0196C142.758 13.7059 142.261 13.4444 141.659 13.2353C141.071 13.0261 140.417 12.9216 139.697 12.9216C138.69 12.9216 137.892 13.1503 137.303 13.6078C136.715 14.0523 136.421 14.6144 136.421 15.2941C136.421 15.9346 136.702 16.4706 137.264 16.902C137.827 17.3203 138.952 17.6928 140.639 18.0196C143.268 18.5425 145.217 19.3137 146.486 20.3333C147.755 21.3399 148.389 22.732 148.389 24.5098C148.389 26.4183 147.565 27.9804 145.917 29.1961C144.282 30.3987 142.124 31 139.442 31C137.807 31 136.303 30.7647 134.929 30.2941C133.569 29.8105 132.359 29.1242 131.3 28.2353L131.241 23.4706H135.243L136.028 26.2353C136.368 26.5229 136.833 26.7386 137.421 26.8824C138.01 27.0131 138.625 27.0784 139.266 27.0784C140.43 27.0784 141.313 26.8693 141.914 26.451C142.529 26.0327 142.836 25.4641 142.836 24.7451C142.836 24.1176 142.529 23.5752 141.914 23.1176C141.3 22.6601 140.168 22.2549 138.52 21.902C136.022 21.3922 134.132 20.6405 132.85 19.6471C131.581 18.6405 130.946 17.2745 130.946 15.549C130.946 13.7712 131.679 12.2418 133.144 10.9608C134.609 9.66667 136.695 9.01961 139.403 9.01961C141.051 9.01961 142.608 9.24183 144.073 9.68628C145.551 10.1307 146.708 10.6993 147.545 11.3922L147.604 16.6667Z" fill="#262D33"/>
<path d="M164.478 30.5882C164.321 30.2353 164.183 29.8758 164.066 29.5098C163.948 29.1307 163.856 28.7516 163.791 28.3726C163.111 29.1569 162.28 29.7909 161.299 30.2745C160.331 30.7582 159.219 31 157.964 31C155.884 31 154.229 30.4379 153 29.3137C151.783 28.1765 151.175 26.634 151.175 24.6863C151.175 22.6993 151.973 21.1634 153.569 20.0784C155.165 18.9935 157.506 18.451 160.593 18.451H163.516V16.3725C163.516 15.3529 163.222 14.5621 162.633 14C162.045 13.4379 161.175 13.1569 160.024 13.1569C159.37 13.1569 158.788 13.2353 158.278 13.3922C157.768 13.5359 157.356 13.7124 157.042 13.9216L156.669 16.1961H152.352L152.372 11.4902C153.418 10.7843 154.615 10.1895 155.962 9.70588C157.323 9.22222 158.801 8.98039 160.397 8.98039C163.026 8.98039 165.158 9.62745 166.793 10.9216C168.441 12.2026 169.265 14.0327 169.265 16.4118V25.1765C169.265 25.5033 169.265 25.8105 169.265 26.098C169.278 26.3856 169.304 26.6601 169.344 26.9216L171.09 27.1569V30.5882H164.478ZM159.514 26.7647C160.377 26.7647 161.162 26.5817 161.868 26.2157C162.575 25.8366 163.124 25.366 163.516 24.8039V21.5686H160.593C159.376 21.5686 158.454 21.8562 157.826 22.4314C157.199 22.9935 156.885 23.6732 156.885 24.4706C156.885 25.1895 157.114 25.7516 157.571 26.1569C158.042 26.5621 158.69 26.7647 159.514 26.7647Z" fill="#262D33"/>
<path d="M172.444 3.45098V0H181.234V26.5686L184 27.1569V30.5882H172.738V27.1569L175.504 26.5686V4.03922L172.444 3.45098Z" fill="#262D33"/>
</svg>
